<svg width="32" height="34" viewBox="0 0 32 34" fill="none" xmlns="http://www.w3.org/2000/svg">
<g clip-path="url(#clip0_1_32)">
<path fill-rule="evenodd" clip-rule="evenodd" d="M6.39277 9.11564C6.40728 9.11504 6.4218 9.11475 6.43633 9.11475H25.5638C25.5783 9.11475 25.5928 9.11504 25.6073 9.11564C26.4348 9.14962 27.2201 9.49016 27.8104 10.071C28.3855 10.6369 28.7355 11.3915 28.797 12.1945L31.8211 30.1005C31.8227 30.11 31.8242 30.1195 31.8255 30.129C31.8911 30.594 31.8593 31.0675 31.7321 31.5195C31.6048 31.9716 31.385 32.3922 31.0865 32.7547C30.788 33.1172 30.4173 33.4136 29.9981 33.6252C29.5789 33.8367 29.1202 33.9588 28.6513 33.9836C28.6326 33.9846 28.6139 33.9851 28.5952 33.9851H3.40487C3.38618 33.9851 3.36748 33.9846 3.34881 33.9836C2.87987 33.9588 2.42123 33.8367 2.00201 33.6252C1.58278 33.4136 1.21214 33.1172 0.913629 32.7547C0.615118 32.3922 0.395262 31.9716 0.268028 31.5195C0.140794 31.0675 0.108963 30.594 0.174558 30.129C0.175901 30.1195 0.177373 30.11 0.178973 30.1005L3.20313 12.1945C3.26458 11.3915 3.6146 10.6369 4.18969 10.071C4.78001 9.49016 5.56528 9.14962 6.39277 9.11564ZM6.46151 11.2378C6.16737 11.2544 5.88905 11.3774 5.67876 11.5843C5.4641 11.7956 5.33567 12.0791 5.31846 12.3798C5.31623 12.4187 5.31186 12.4574 5.30537 12.4959L2.27517 30.4377C2.25292 30.6072 2.26533 30.7796 2.31169 30.9443C2.35915 31.1129 2.44116 31.2698 2.55252 31.405C2.66388 31.5403 2.80214 31.6509 2.95853 31.7298C3.10783 31.8051 3.27053 31.85 3.43717 31.862H28.5629C28.7296 31.85 28.8923 31.8051 29.0416 31.7298C29.198 31.6509 29.3362 31.5403 29.4476 31.405C29.5589 31.2698 29.641 31.1129 29.6884 30.9443C29.7348 30.7796 29.7472 30.6072 29.7249 30.4377L26.6947 12.4959C26.6882 12.4574 26.6839 12.4187 26.6816 12.3798C26.6644 12.0791 26.536 11.7956 26.3213 11.5843C26.111 11.3774 25.8327 11.2544 25.5386 11.2378H6.46151Z" fill="#090909"/>
<path fill-rule="evenodd" clip-rule="evenodd" d="M16.0032 0.015625C17.5744 0.0202937 19.0951 0.571491 20.3043 1.57469C21.5136 2.57788 22.3362 3.97056 22.631 5.51389C22.741 6.08976 22.3633 6.64575 21.7874 6.75574C21.2116 6.86573 20.6556 6.48807 20.5456 5.91221C20.3433 4.85301 19.7788 3.89719 18.9488 3.20869C18.1197 2.52086 17.0773 2.14264 16.0001 2.1387C14.9268 2.14266 13.888 2.51805 13.0601 3.20115C12.2313 3.88493 11.6652 4.83476 11.458 5.88898C11.3449 6.46425 10.7869 6.83892 10.2116 6.72584C9.63635 6.61277 9.26167 6.05476 9.37475 5.47949C9.67666 3.94358 10.5015 2.55975 11.7089 1.56355C12.9163 0.567343 14.4316 0.0203345 15.9969 0.0156251L16 1.07716L16.0032 0.015625Z" fill="#090909"/>
</g>
<defs>
<clipPath id="clip0_1_32">
<rect width="32" height="34" fill="white"/>
</clipPath>
</defs>
</svg>
