<svg width="106" height="107" viewBox="0 0 106 107" fill="none" xmlns="http://www.w3.org/2000/svg">
<path d="M90.269 50.1403V103.787H15.7407V50.1403L53.0047 11.4844L90.269 50.1403Z" fill="white"/>
<path d="M27.6267 103.788V61.8124H48.2932V103.788H27.6267ZM53.0047 3.13232L3.3195 53.4601L9.6372 59.7778L53.0047 14.697L96.372 59.7778L102.69 53.4601L90.269 40.9317V11.4846H77.847V28.2962L53.0047 3.13232Z" fill="#FF9C08"/>
<path d="M36.4073 47.2494C39.7268 28.6174 66.1757 28.6174 69.495 47.2494H36.4073Z" fill="#FF9C08"/>
<path d="M90.269 107H15.7408C13.9204 107 12.5284 105.608 12.5284 103.788V60.8484H7.49561C6.63901 60.8484 5.78231 60.5271 5.13991 59.8847L0.963705 55.7085C-0.321194 54.4236 -0.321194 52.4961 0.963705 51.2112L50.649 0.883425C51.8269 -0.294475 53.9685 -0.294475 55.2534 0.883425L74.528 20.4791V11.4844C74.528 9.66403 75.92 8.27202 77.74 8.27202H90.162C91.982 8.27202 93.374 9.66403 93.374 11.4844V39.5394L104.832 51.2112C106.117 52.4961 106.117 54.4236 104.832 55.7085L100.655 59.8847C100.013 60.5271 99.263 60.8484 98.407 60.8484H93.374V103.788C93.481 105.608 91.982 107 90.269 107ZM18.9532 100.575H86.949V57.636C86.949 56.7793 87.27 55.9227 87.913 55.3873C88.555 54.7448 89.412 54.4236 90.162 54.4236H97.122L98.086 53.4598L87.913 43.1801C87.27 42.5377 86.949 41.7881 86.949 40.9314V14.6968H80.953V28.296C80.953 29.5809 80.203 30.7588 78.918 31.2942C77.74 31.8296 76.348 31.5084 75.385 30.5447L53.0047 7.73662L7.92391 53.4598L8.8877 54.4236H15.8479C16.7045 54.4236 17.5612 54.7448 18.0966 55.3873C18.7391 56.0298 19.0603 56.7793 19.0603 57.636V100.575H18.9532Z" fill="#090909"/>
<path d="M57.7163 61.8125H78.383V82.8002H57.7163V61.8125Z" fill="#FF9C08"/>
<path d="M37.9065 68.1299C36.7989 68.1299 35.7367 68.5699 34.9535 69.3529C34.1703 70.1359 33.7303 71.1989 33.7303 72.3059C33.7303 73.4139 34.1703 74.4759 34.9535 75.2589C35.7367 76.0419 36.7989 76.4819 37.9065 76.4819C39.0141 76.4819 40.0763 76.0419 40.8594 75.2589C41.6426 74.4759 42.0826 73.4139 42.0826 72.3059C42.0826 71.1989 41.6426 70.1359 40.8594 69.3529C40.0763 68.5699 39.0141 68.1299 37.9065 68.1299Z" fill="white"/>
</svg>
