<svg width="102" height="84" viewBox="0 0 102 84" fill="none" xmlns="http://www.w3.org/2000/svg">
<path d="M70.368 5.67578C70.361 5.67578 70.355 5.67578 70.349 5.67578C70.347 5.67578 70.344 5.67578 70.342 5.67578C70.339 5.67578 70.337 5.67578 70.335 5.67578C68.922 5.67818 67.51 5.80198 66.121 6.02368C65.133 6.18668 64.1631 6.40598 63.2135 6.67678C73.958 9.76188 81.885 19.3015 81.885 30.7929C81.885 38.6343 78.085 41.6974 72.328 50.1527L51.009 77.597L86.786 50.1515C92.544 45.4956 96.342 38.6343 96.342 30.7929C96.342 16.8253 84.58 5.67578 70.368 5.67578Z" fill="#FF9C08"/>
<path d="M51.0466 10.6779C46.0821 5.99358 39.2029 3.17578 31.6504 3.17578C15.8829 3.17578 3.17572 15.4973 3.17572 30.7929C3.17572 39.5941 7.50782 47.5407 14.3374 52.636L49.4881 79.581L51.0095 80.747L52.5306 79.58L88.307 52.136L88.312 52.133C94.782 47.1453 98.842 39.4406 98.842 30.7929C98.842 15.352 85.868 3.17578 70.368 3.17578C62.9941 3.17578 56.152 6.01828 51.0466 10.6779Z" fill="#FF9C08" stroke="#090909" stroke-width="5"/>
<path d="M31.6504 13.1494C21.6036 13.1494 13.5171 21.1134 13.5171 30.7914C13.5171 32.8743 15.1099 34.4671 17.1928 34.4671C19.2756 34.4671 20.8684 32.8743 20.8684 30.7914C20.8684 25.1554 25.7693 20.5008 31.6504 20.5008C33.7333 20.5008 35.3261 18.908 35.3261 16.8251C35.3261 14.7422 33.7333 13.1494 31.6504 13.1494Z" fill="white"/>
</svg>
