<svg width="96" height="96" viewBox="0 0 96 96" fill="none" xmlns="http://www.w3.org/2000/svg">
<path d="M85.983 33.4467V20.5392C85.983 10.441 77.859 2.31689 67.761 2.31689C57.6629 2.31689 49.5388 10.441 49.5388 20.5392V33.4467" fill="#F08200"/>
<path d="M41.187 67.6128C55.8635 67.6128 67.761 55.7155 67.761 41.039C67.761 26.3624 55.8635 14.4648 41.187 14.4648C26.5104 14.4648 14.6127 26.3624 14.6127 41.039C14.6127 55.7155 26.5104 67.6128 41.187 67.6128Z" fill="#FF9C08"/>
<path d="M93.576 32.6875H2.46448L9.22188 86.747C9.67748 90.543 12.9423 93.429 16.7386 93.429H79.226C83.022 93.429 86.287 90.543 86.743 86.747L93.576 32.6875Z" fill="white"/>
<path d="M25.2424 80.521C24.1035 80.521 23.1165 79.6859 22.9646 78.5469L19.1683 48.1764C19.0164 46.9616 19.9276 45.8227 21.1424 45.6708C22.3572 45.519 23.4961 46.4301 23.6479 47.6449L27.4443 78.0159C27.5961 79.2299 26.685 80.3689 25.4702 80.521C25.3943 80.521 25.3183 80.521 25.2424 80.521Z" fill="#090909"/>
<path d="M40.4277 80.5208C39.1369 80.5208 38.1499 79.5338 38.1499 78.2428V47.8725C38.1499 46.5818 39.1369 45.5947 40.4277 45.5947C41.7184 45.5947 42.7055 46.5818 42.7055 47.8725V78.2428C42.7055 79.5338 41.7184 80.5208 40.4277 80.5208Z" fill="#090909"/>
<path d="M55.613 80.5208C54.3222 80.5208 53.3352 79.5338 53.3352 78.2428V47.8725C53.3352 46.5818 54.3222 45.5947 55.613 45.5947C56.9037 45.5947 57.8908 46.5818 57.8908 47.8725V78.2428C57.8908 79.5338 56.9037 80.5208 55.613 80.5208Z" fill="#090909"/>
<path d="M70.7979 80.521C70.7219 80.521 70.6459 80.521 70.4939 80.521C69.2799 80.3689 68.3689 79.2299 68.5199 78.0159L72.3169 47.6449C72.4689 46.4301 73.6069 45.519 74.8219 45.6708C76.0369 45.8227 76.9479 46.9616 76.7959 48.1764L72.9999 78.5469C72.9239 79.6859 71.9369 80.521 70.7979 80.521Z" fill="#090909"/>
<path d="M21.4461 21.2985H15.372C8.23488 21.2985 2.46448 15.5281 2.46448 8.391V2.31689H8.53858C15.6757 2.31689 21.4461 8.0873 21.4461 15.2244V21.2985Z" fill="#FF9C08"/>
<path d="M95.247 31.1689C94.791 30.7133 94.184 30.4096 93.576 30.4096H88.261V20.5392C88.261 9.22606 79.074 0.0390625 67.761 0.0390625C62.75 0.0390625 57.8908 1.86126 54.1704 5.20206C53.2593 6.03716 53.1834 7.47976 54.0185 8.39096C54.8537 9.30206 56.2963 9.37796 57.2074 8.54276C60.0926 6.03716 63.813 4.59456 67.761 4.59456C74.671 4.59456 80.593 9.07426 82.795 15.2243L73.456 23.0447C72.469 23.8799 72.393 25.3225 73.152 26.2337C73.608 26.7651 74.215 27.0688 74.898 27.0688C75.43 27.0688 75.961 26.917 76.341 26.5374L83.63 20.3873C83.63 20.4632 83.63 20.4632 83.63 20.5392V30.4096H18.5609C22.661 22.0577 31.0129 16.7429 40.4277 16.7429C41.7185 16.7429 42.7055 15.7558 42.7055 14.4651C42.7055 13.1743 41.7185 12.1873 40.4277 12.1873C34.2777 12.1873 28.5073 14.0854 23.7239 17.5021V15.2243C23.7239 6.87236 16.8906 0.0390625 8.53868 0.0390625H2.46458C1.17378 0.0390625 0.186782 1.02606 0.186782 2.31686V8.39096C0.186782 16.7429 7.02009 23.5762 15.372 23.5762H17.422C15.9035 25.6262 14.5368 27.904 13.5498 30.4096H2.46458C1.78118 30.4096 1.17378 30.7133 0.794185 31.1689C0.414485 31.6244 0.110782 32.3078 0.186782 32.9911L6.94418 87.051C7.55158 91.986 11.8035 95.706 16.7387 95.706H79.226C84.161 95.706 88.413 91.986 89.021 87.051L95.778 32.9911C95.93 32.3078 95.702 31.7003 95.247 31.1689ZM4.74228 8.39096V4.59456H8.53868C14.385 4.59456 19.1683 9.37796 19.1683 15.2243V19.0206H15.372C9.52569 19.0206 4.74228 14.2373 4.74228 8.39096ZM84.541 86.519C84.237 89.177 81.959 91.151 79.302 91.151H16.7387C14.0813 91.151 11.8035 89.177 11.4998 86.519L5.04599 34.9652H90.995L84.541 86.519Z" fill="#090909"/>
</svg>
