<svg width="106" height="82" viewBox="0 0 106 82" fill="none" xmlns="http://www.w3.org/2000/svg">
<path d="M57.4475 43.7976C54.6952 44.8297 51.5988 44.8297 48.7605 43.7976L5.58319 27.1116C2.65879 25.9934 2.65879 21.7789 5.58319 20.6608L48.8465 4.0607C51.5988 3.0286 54.6952 3.0286 57.5336 4.0607L100.797 20.6608C102.345 21.2628 103.205 22.639 103.119 24.0152V25.8214L57.4475 43.7976Z" fill="#FF9C08"/>
<path d="M101.657 18.3382L58.3937 1.65222C55.0393 0.36202 51.2548 0.36202 47.9004 1.65222L4.6371 18.3382C2.3148 19.1984 0.766602 21.4346 0.766602 23.9289C0.766602 26.4232 2.3148 28.6595 4.6371 29.5196L16.1625 33.9922V54.033C16.1625 71.579 35.9449 73.815 53.1471 73.815C70.349 73.815 90.132 71.579 90.132 54.033V37.2606C90.132 35.2823 89.185 33.3901 87.551 32.272C85.917 31.1538 83.853 30.8958 81.961 31.5839L56.5015 41.3891C54.3512 42.2492 51.8569 42.2492 49.7066 41.3891L6.5293 24.703C6.0993 24.531 6.0132 24.187 6.0132 23.9289C6.0132 23.6709 6.0993 23.3269 6.5293 23.1548L49.7926 6.55482C51.9429 5.69472 54.4372 5.69472 56.5875 6.55482L99.851 23.1548C100.367 23.3269 100.539 23.7569 100.539 24.0149C100.539 24.101 100.539 24.101 100.539 24.187V36.8305C100.539 38.2927 101.657 39.4108 103.119 39.4108C104.581 39.4108 105.7 38.2927 105.7 36.8305V24.187C105.7 21.6066 104.151 19.2844 101.657 18.3382Z" fill="#090909"/>
<path d="M103.033 56.613C101.571 56.613 100.453 55.495 100.453 54.033V49.7322C100.453 48.27 101.571 47.1519 103.033 47.1519C104.495 47.1519 105.613 48.27 105.613 49.7322V54.033C105.613 55.495 104.495 56.613 103.033 56.613Z" fill="#090909"/>
<path d="M17.46 32.2527L14.1307 30.9312L14.0385 34.512L13.5266 54.3833L13.5262 54.3983L13.526 54.4143C13.4062 63.4173 16.6158 68.6133 19.2719 70.4543C22.0959 73.4403 26.7775 75.5822 32.1185 76.9622C37.7004 78.4043 44.3655 79.1073 51.2854 78.9143H51.2977H51.3101C61.3904 78.5343 67.566 77.2833 71.768 75.8073C74.774 74.7523 76.925 73.4763 78.391 72.6063C78.902 72.3033 79.329 72.0493 79.681 71.8713L79.935 71.7422L80.154 71.5602C83.805 68.5153 85.743 65.9263 86.748 63.4133C87.541 61.4293 87.691 59.5472 87.805 58.1042C87.831 57.7852 87.854 57.4883 87.883 57.2163L87.897 57.0833L87.896 56.9492C87.889 54.2282 87.803 48.816 87.729 44.1385C87.707 42.7379 87.686 41.403 87.668 40.226C87.61 36.3802 83.707 33.7062 80.094 35.0891L52.7543 45.5525C52.169 45.7766 51.5209 45.7726 50.9384 45.5413L17.46 32.2527Z" fill="white" stroke="#090909" stroke-width="5"/>
</svg>
