<svg width="102" height="93" viewBox="0 0 102 93" fill="none" xmlns="http://www.w3.org/2000/svg">
<path d="M89.964 89.835H11.4479C6.64968 89.835 2.72388 85.909 2.72388 81.111V28.7665C2.72388 23.9683 6.64968 20.0425 11.4479 20.0425H89.964C94.762 20.0425 98.688 23.9683 98.688 28.7665V81.111C98.688 85.909 94.762 89.835 89.964 89.835Z" fill="#FF9C08"/>
<path d="M89.964 92.4521H11.4479C5.16659 92.4521 0.106689 87.3921 0.106689 81.1101V28.7665C0.106689 22.4852 5.16659 17.4253 11.4479 17.4253H89.964C96.245 17.4253 101.305 22.4852 101.305 28.7665V81.1101C101.305 87.3921 96.245 92.4521 89.964 92.4521ZM11.4479 22.6597C8.04549 22.6597 5.34109 25.3641 5.34109 28.7665V81.1101C5.34109 84.5131 8.04549 87.2171 11.4479 87.2171H89.964C93.366 87.2171 96.071 84.5131 96.071 81.1101V28.7665C96.071 25.3641 93.366 22.6597 89.964 22.6597H11.4479Z" fill="#090909"/>
<path d="M68.1539 22.6596C66.6709 22.6596 65.5369 21.5255 65.5369 20.0424C65.5369 12.3653 59.2553 6.08401 51.5782 6.08401H49.8333C45.3841 6.08401 41.3711 8.09051 38.6666 11.6674C37.7942 12.8015 36.1367 13.0632 35.0025 12.1908C33.8684 11.3184 33.6067 9.66091 34.4791 8.52671C38.1432 3.64131 43.7265 0.849609 49.8333 0.849609H51.5782C62.1342 0.849609 70.7709 9.48641 70.7709 20.0424C70.7709 21.5255 69.6369 22.6596 68.1539 22.6596Z" fill="#090909"/>
<path d="M66.409 48.8319H56.8127V39.2354C56.8127 37.7524 55.6786 36.6182 54.1955 36.6182H47.2163C45.7332 36.6182 44.5991 37.7524 44.5991 39.2354V48.8319H35.0027C33.5196 48.8319 32.3855 49.966 32.3855 51.4491V58.4283C32.3855 59.9114 33.5196 61.0452 35.0027 61.0452H44.5991V70.6422C44.5991 72.1252 45.7332 73.2592 47.2163 73.2592H54.1955C55.6786 73.2592 56.8127 72.1252 56.8127 70.6422V61.0452H66.409C67.892 61.0452 69.026 59.9114 69.026 58.4283V51.4491C69.026 49.966 67.892 48.8319 66.409 48.8319Z" fill="white"/>
</svg>
