<svg width="42" height="35" viewBox="0 0 42 35" fill="none" xmlns="http://www.w3.org/2000/svg">
<path d="M29.295 2.32593C29.2924 2.32593 29.2898 2.32593 29.2871 2.32593C29.2861 2.32593 29.285 2.32593 29.284 2.32593C29.2829 2.32593 29.2819 2.32593 29.2808 2.32593C28.6755 2.32703 28.0707 2.38003 27.4754 2.47513C27.0522 2.54493 26.6364 2.63893 26.2295 2.75493C30.8332 4.07683 34.23 8.16453 34.23 13.0885C34.23 16.4485 32.602 17.761 30.135 21.384L21 33.1435L36.33 21.3835C38.7975 19.3885 40.425 16.4485 40.425 13.0885C40.425 7.10353 35.385 2.32593 29.295 2.32593Z" fill="#FF9C08"/>
<path d="M12.705 2.32593C16.065 2.32593 19.0575 3.74343 21 6.00103C23.0475 3.74343 26.04 2.32593 29.295 2.32593C35.3855 2.32593 40.425 7.10353 40.425 13.0885C40.425 16.4485 38.85 19.4415 36.33 21.384L21 33.1435L5.9325 21.5935C3.255 19.5985 1.575 16.501 1.575 13.0885C1.575 7.15603 6.51 2.32593 12.705 2.32593Z" fill="#FF9C08"/>
<path d="M12.7049 5.52832C8.39991 5.52832 4.93491 8.94082 4.93491 13.0878C4.93491 13.9803 5.6174 14.6628 6.5099 14.6628C7.4024 14.6628 8.08491 13.9803 8.08491 13.0878C8.08491 10.6728 10.1849 8.67832 12.7049 8.67832C13.5974 8.67832 14.2799 7.99582 14.2799 7.10332C14.2799 6.21082 13.5974 5.52832 12.7049 5.52832Z" fill="white"/>
<path d="M21 34.7185C20.685 34.7185 20.3175 34.6135 20.055 34.4035L4.9875 22.8535C1.8375 20.5435 0 16.9735 0 13.0885C0 6.26348 5.7225 0.750977 12.705 0.750977C15.8025 0.750977 18.795 1.85348 21 3.79598C23.31 1.85348 26.25 0.750977 29.295 0.750977C36.2775 0.750977 42 6.26348 42 13.0885C42 16.7635 40.32 20.281 37.3275 22.6435L21.945 34.4035C21.6825 34.6135 21.315 34.7185 21 34.7185ZM12.705 3.90098C7.455 3.90098 3.15 8.04848 3.15 13.0885C3.15 15.976 4.515 18.601 6.8775 20.3335L21 31.201L35.385 20.176C37.59 18.4435 38.85 15.871 38.85 13.141C38.85 8.04848 34.545 3.95348 29.295 3.95348C26.565 3.95348 23.9925 5.10848 22.155 7.10348C21.84 7.41848 21.42 7.62848 21 7.62848C20.5275 7.62848 20.1075 7.41848 19.845 7.10348C18.06 5.05598 15.4875 3.90098 12.705 3.90098Z" fill="#090909"/>
</svg>
