<svg width="45" height="45" viewBox="0 0 45 45" fill="none" xmlns="http://www.w3.org/2000/svg">
<path d="M24.4454 23.2622C24.1912 23.5201 23.8882 23.7248 23.5541 23.8646C23.22 24.0043 22.8615 24.0763 22.4994 24.0763C22.1372 24.0763 21.7787 24.0043 21.4446 23.8646C21.1106 23.7248 20.8076 23.5201 20.5533 23.2622L10.8521 13.4226C9.83589 12.4452 9.16169 11.1664 8.92929 9.77578C8.69689 8.38518 8.91879 6.95668 9.56199 5.70208C10.0722 4.74688 10.7971 3.92318 11.6795 3.29558C12.562 2.66798 13.578 2.25368 14.6477 2.08528C15.7173 1.91678 16.8115 1.99868 17.8442 2.32468C18.8768 2.65058 19.8197 3.21168 20.5989 3.96368L22.4994 5.81138L24.4017 3.96368C25.1808 3.21168 26.1238 2.65058 27.1564 2.32468C28.1891 1.99868 29.2832 1.91678 30.3529 2.08528C31.4226 2.25368 32.4386 2.66798 33.321 3.29558C34.2035 3.92318 34.9283 4.74688 35.4386 5.70208C36.0833 6.95768 36.3058 8.38778 36.0731 9.77998C35.8403 11.1722 35.1647 12.4522 34.1466 13.4299L24.4454 23.2622Z" fill="#FF9C08" stroke="#090909" stroke-width="3" stroke-linecap="round" stroke-linejoin="round"/>
<path d="M3.1864 34.9302L16.2572 34.6643L16.5667 44.1551C16.5667 44.1551 14.385 43.1751 12.0791 43.1751C9.7732 43.1751 7.2305 44.4646 7.2305 44.4646L3.1864 34.9302Z" fill="white"/>
<path d="M7.4665 43L3.7967 38.6614C2.6336 37.2075 2 35.4011 2 33.5393V24.1151C2 23.3902 2.288 22.695 2.8005 22.1824C3.3131 21.6698 4.0083 21.3818 4.7332 21.3818C5.4581 21.3818 6.1534 21.6698 6.6659 22.1824C7.1785 22.695 7.4665 23.3902 7.4665 24.1151V30.9482" fill="white"/>
<path d="M7.4665 43L3.7967 38.6614C2.6336 37.2075 2 35.4011 2 33.5393V24.1151C2 23.3902 2.288 22.695 2.8005 22.1824C3.3131 21.6698 4.0083 21.3818 4.7332 21.3818C5.4581 21.3818 6.1534 21.6698 6.6659 22.1824C7.1785 22.695 7.4665 23.3902 7.4665 24.1151V30.9482" stroke="#090909" stroke-width="3" stroke-linecap="round" stroke-linejoin="round"/>
<path d="M15.6662 43V37.5335C15.667 35.912 15.1869 34.3268 14.2869 32.9781L12.2059 29.8622C12.0276 29.5668 11.7913 29.3107 11.5112 29.1094C11.2311 28.908 10.913 28.7655 10.5763 28.6906C10.2395 28.6156 9.89109 28.6098 9.55199 28.6733C9.21289 28.7369 8.89029 28.8686 8.60349 29.0604C8.08889 29.4055 7.71739 29.926 7.55849 30.5249C7.39959 31.1237 7.46399 31.76 7.73979 32.3148L10.2034 36.4147" fill="white"/>
<path d="M15.6662 43V37.5335C15.667 35.912 15.1869 34.3268 14.2869 32.9781L12.2059 29.8622C12.0276 29.5668 11.7913 29.3107 11.5112 29.1094C11.2311 28.908 10.913 28.7655 10.5763 28.6906C10.2395 28.6156 9.89109 28.6098 9.55199 28.6733C9.21289 28.7369 8.89029 28.8686 8.60349 29.0604C8.08889 29.4055 7.71739 29.926 7.55849 30.5249C7.39959 31.1237 7.46399 31.76 7.73979 32.3148L10.2034 36.4147" stroke="#090909" stroke-width="3" stroke-linecap="round" stroke-linejoin="round"/>
<path d="M37.5322 43L41.2021 38.6614C42.3651 37.2075 42.9987 35.4011 42.9987 33.5393V24.1151C42.9987 23.3902 42.7108 22.695 42.1982 22.1824C41.6856 21.6698 40.9904 21.3818 40.2655 21.3818C39.5406 21.3818 38.8454 21.6698 38.3328 22.1824C37.8202 22.695 37.5322 23.3902 37.5322 24.1151V30.9482" fill="white"/>
<path d="M37.5322 43L41.2021 38.6614C42.3651 37.2075 42.9987 35.4011 42.9987 33.5393V24.1151C42.9987 23.3902 42.7108 22.695 42.1982 22.1824C41.6856 21.6698 40.9904 21.3818 40.2655 21.3818C39.5406 21.3818 38.8454 21.6698 38.3328 22.1824C37.8202 22.695 37.5322 23.3902 37.5322 24.1151V30.9482" stroke="#090909" stroke-width="3" stroke-linecap="round" stroke-linejoin="round"/>
<path d="M29.3325 42.9999V37.5334C29.3318 35.9119 29.8118 34.3266 30.7119 32.978L32.7928 29.8584C32.9704 29.5623 33.2062 29.3054 33.4859 29.1031C33.7657 28.9008 34.0836 28.7575 34.4204 28.6817C34.7572 28.6058 35.1059 28.5992 35.4453 28.6621C35.7848 28.725 36.1079 28.8561 36.3952 29.0475C36.9127 29.3923 37.2864 29.9143 37.4462 30.5152C37.6059 31.1162 37.5406 31.7548 37.2626 32.311L34.799 36.4109" fill="white"/>
<path d="M29.3325 42.9999V37.5334C29.3318 35.9119 29.8118 34.3266 30.7119 32.978L32.7928 29.8584C32.9704 29.5623 33.2062 29.3054 33.4859 29.1031C33.7657 28.9008 34.0836 28.7575 34.4204 28.6817C34.7572 28.6058 35.1059 28.5992 35.4453 28.6621C35.7848 28.725 36.1079 28.8561 36.3952 29.0475C36.9127 29.3923 37.2864 29.9143 37.4462 30.5152C37.6059 31.1162 37.5406 31.7548 37.2626 32.311L34.799 36.4109" stroke="#090909" stroke-width="3" stroke-linecap="round" stroke-linejoin="round"/>
</svg>
