<svg width="52" height="50" viewBox="0 0 52 50" fill="none" xmlns="http://www.w3.org/2000/svg">
<path d="M41.2007 43.1143C51.2048 34.7192 52.5093 19.8037 44.1142 9.79949C35.7191 -0.204712 20.8035 -1.50911 10.7993 6.88599C0.795202 15.2811 -0.509297 30.1966 7.8858 40.2008C16.2809 50.205 31.1965 51.5094 41.2007 43.1143Z" fill="white"/>
<path d="M29.4558 1.67212C24.6809 5.21922 20.9065 10.4034 19.042 16.7699C26.5909 10.4488 35.6859 7.85682 43.0983 9.26652L43.0074 9.17552C39.7786 4.85542 34.8673 2.12692 29.4558 1.67212Z" fill="#FF9C08"/>
<path d="M8.81 31.9128C10.3561 26.183 13.8577 20.7714 19.0873 16.7241C15.9496 26.0011 17.7686 41.8264 21.7704 48.2384C16.3134 46.9651 11.3111 44.1001 7.4457 40.0074L6.991 39.5526L8.81 31.9128Z" fill="#FF9C08"/>
<path d="M10.8111 6.90161C5.9452 10.4032 2.8984 15.8602 2.5801 21.8175L18.7237 16.4059L10.8111 6.90161Z" fill="#FF9C08"/>
<path d="M49.2829 25.1372C41.7795 19.6802 29.2739 15.5875 19.042 16.7244L18.7236 16.406L41.1883 43.0999L42.5071 41.7811C46.9637 37.4155 49.4193 31.3673 49.2829 25.1372Z" fill="#FF9C08"/>
<path d="M19.4967 42.3269C18.9055 42.3269 18.3598 41.9176 18.1779 41.3265C15.8132 32.8226 15.6768 23.4548 17.7686 16.3606C18.8145 12.7226 20.4971 9.40302 22.7254 6.44712C23.1801 5.85592 24.0442 5.71952 24.6354 6.17422C25.2265 6.62902 25.363 7.49302 24.9082 8.08422C22.8618 10.7672 21.3611 13.814 20.4062 17.0882C18.4507 23.7276 18.6326 32.5043 20.8609 40.5534C21.0428 41.281 20.6335 42.0086 19.9059 42.236C19.724 42.3269 19.6331 42.3269 19.4967 42.3269Z" fill="#090909"/>
<path d="M45.1446 8.90259C36.277 -1.64771 20.4971 -3.01194 9.9014 5.85569C4.8082 10.1304 1.6704 16.1786 1.0793 22.8179C0.488104 29.4573 2.5345 35.9602 6.8546 41.0534C11.1293 46.1921 17.1774 49.3299 23.8168 49.8756C24.5444 49.9211 25.3175 49.9666 26.0451 49.9666C31.9114 49.9666 37.5503 47.9202 42.0978 44.1003C47.2365 39.8256 50.3743 33.7774 50.92 27.1381C51.4657 20.4987 49.4648 14.0412 45.1446 8.90259ZM48.146 22.727C41.0519 18.2249 31.684 15.4055 23.453 15.2236C29.6831 11.1763 36.6863 9.49368 42.8709 10.6306C42.9163 10.6306 42.9618 10.6306 43.0073 10.6306C43.0073 10.6761 43.0528 10.6761 43.0528 10.7216C46.0541 14.2231 47.7367 18.4068 48.146 22.727ZM41.3247 41.1444L29.8195 27.4109C29.3193 26.8197 28.4553 26.7743 27.9096 27.229C27.3184 27.7292 27.2729 28.5933 27.7277 29.139L39.2329 42.8724C34.8673 46.1012 29.5012 47.6473 24.0442 47.1471C18.1324 46.6469 12.7209 43.8274 8.901 39.2799C8.901 39.2344 8.8555 39.2344 8.8555 39.189C8.8555 39.1435 8.8555 39.0525 8.8555 39.0071C8.8555 35.46 9.8105 31.6401 11.6295 28.0021C11.9933 27.32 11.7204 26.5014 11.0383 26.1831C10.3562 25.8648 9.5376 26.0921 9.2193 26.7743C7.7641 29.6847 6.8091 32.6405 6.3999 35.5964C4.308 31.7765 3.3985 27.4564 3.8078 23.0453C4.308 17.1335 7.1275 11.722 11.675 7.90209C15.8587 4.44599 20.9064 2.71788 25.9996 2.71788C30.9564 2.71788 35.8222 4.35499 39.8695 7.53829C32.6845 7.31089 24.9537 10.1304 18.4962 15.451C14.4489 15.9512 10.6745 17.179 7.2184 19.1344C6.5818 19.4982 6.3089 20.3168 6.7182 20.9989C7.082 21.6356 7.9005 21.9084 8.5827 21.4991C11.8569 19.6801 15.4494 18.4978 19.2693 18.0885C29.4557 16.9516 41.5066 21.2263 48.2824 26.0467C47.9641 31.6401 45.6449 37.0971 41.3247 41.1444Z" fill="#090909"/>
<path d="M15.8133 14.2686C15.404 14.2686 15.0402 14.0867 14.7674 13.7684L12.6755 11.2217C12.2208 10.6306 12.2663 9.7665 12.8574 9.3118C13.4486 8.857 14.3126 8.9025 14.7674 9.4937L16.8593 12.0403C17.314 12.6315 17.2685 13.4955 16.6774 13.9503C16.4045 14.1776 16.1316 14.2686 15.8133 14.2686Z" fill="#090909"/>
<path d="M21.6466 19.8932C23.5704 18.2787 23.8213 15.4104 22.2068 13.4865C20.5924 11.5626 17.724 11.3117 15.8001 12.9262C13.8763 14.5406 13.6254 17.409 15.2399 19.3329C16.8543 21.2568 19.7227 21.5076 21.6466 19.8932Z" fill="white"/>
<path d="M18.7237 22.3176C18.5418 22.3176 18.3599 22.3176 18.178 22.2721C16.5863 22.1357 15.1766 21.4081 14.1761 20.1802C13.1757 18.9524 12.6755 17.4517 12.8119 15.8601C12.9483 14.2685 13.6759 12.8587 14.9037 11.8583C16.1316 10.8578 17.6322 10.3576 19.2239 10.494C20.8155 10.6305 22.2252 11.3581 23.2257 12.5859C25.3175 15.087 24.9992 18.816 22.4981 20.9078C21.4522 21.8173 20.1334 22.3176 18.7237 22.3176ZM18.7237 13.2225C17.9961 13.2225 17.2684 13.4954 16.6773 13.9501C16.0406 14.4959 15.6313 15.2689 15.5404 16.133C15.4494 16.997 15.7223 17.8155 16.268 18.4522C17.4049 19.8164 19.4058 19.9529 20.77 18.8615C22.1343 17.7246 22.2707 15.7237 21.1793 14.3594C20.6336 13.7228 19.8605 13.3135 18.9965 13.2225C18.9056 13.2225 18.8146 13.2225 18.7237 13.2225Z" fill="#090909"/>
</svg>
