<svg width="51" height="38" viewBox="0 0 51 38" fill="none" xmlns="http://www.w3.org/2000/svg">
<path d="M42.8415 15.199V27.3806C42.8415 28.8112 42.1913 30.1984 41.1075 31.1088C32.0472 38.3917 18.7385 38.6084 9.89489 31.1521C8.81119 30.1984 8.16089 28.8112 8.16089 27.3806V15.1123" fill="white"/>
<path d="M1.65829 12.2078L25.9348 23.0455L49.3442 12.2078L25.9348 1.37012L1.65829 12.2078Z" fill="#FF9C08"/>
<path d="M25.2844 37.915C19.4321 37.915 13.6231 36.0076 9.07119 32.1494C7.68399 30.9789 6.90369 29.2449 6.90369 27.3808V15.1125C6.90369 14.3756 7.46719 13.812 8.20419 13.812C8.94119 13.812 9.50469 14.3756 9.50469 15.1125V27.3808C9.50469 28.4646 9.98159 29.4616 10.7619 30.1552C18.9552 37.0914 31.657 37.048 40.3272 30.1119C41.1508 29.4616 41.5843 28.4646 41.5843 27.3808V15.1992C41.5843 14.4623 42.1479 13.8987 42.8849 13.8987C43.6218 13.8987 44.1854 14.4623 44.1854 15.1992V27.3808C44.1854 29.2449 43.3617 30.9789 41.9311 32.106C37.0759 36.0076 31.1368 37.915 25.2844 37.915Z" fill="#090909"/>
<path d="M25.9348 24.346C25.7614 24.346 25.588 24.3026 25.4146 24.2159L1.13809 13.3782C0.661188 13.2048 0.357788 12.728 0.357788 12.2078C0.357788 11.6875 0.661188 11.2107 1.13809 11.0373L25.4146 0.199591C25.7614 0.026191 26.1515 0.069491 26.4983 0.199591L49.9078 11.0373C50.3846 11.254 50.6447 11.7309 50.6447 12.2078C50.6447 12.6846 50.3413 13.1615 49.9078 13.3782L26.4983 24.2159C26.3249 24.3026 26.1082 24.346 25.9348 24.346ZM4.86629 12.2078L25.9348 21.6149L46.2663 12.2078L25.9348 2.80059L4.86629 12.2078ZM49.3442 26.0367C48.6072 26.0367 48.0437 25.4731 48.0437 24.7361V16.5428C48.0437 15.8059 48.6072 15.2423 49.3442 15.2423C50.0812 15.2423 50.6447 15.8059 50.6447 16.5428V24.7361C50.6447 25.4297 50.0812 26.0367 49.3442 26.0367Z" fill="#090909"/>
</svg>
