<svg width="242" height="39" viewBox="0 0 242 39" fill="none" xmlns="http://www.w3.org/2000/svg">
<g clip-path="url(#clip0_1_399)">
<path d="M41.6883 8.45825C39.7931 4.32674 35.8693 1.51943 31.4916 1.09568C27.9414 0.777871 24.4447 1.67833 21.6419 3.66463C21.6152 3.69112 21.5885 3.7176 21.5618 3.7176C21.5351 3.69112 21.5085 3.66463 21.4818 3.66463C18.6523 1.67833 15.1556 0.777871 11.6321 1.12216C7.22773 1.51943 3.33057 4.32674 1.40868 8.45825C-0.646678 12.8811 -0.0861269 17.966 2.95686 22.7596C7.38789 29.7514 14.9687 34.7304 20.5475 37.6702L21.4284 38.0939V38.1204H21.4551H21.4818L22.5494 37.6967C28.1283 34.7569 35.7358 29.7779 40.1401 22.7861C43.1831 17.966 43.7437 12.8811 41.6883 8.45825ZM36.5099 20.2437C32.853 26.0437 26.5 30.3606 21.5085 33.1149V33.0355C16.5168 30.3076 10.244 25.9907 6.6138 20.2437C4.45167 16.8272 4.02458 13.3578 5.35923 10.4445C6.5871 7.79615 9.20301 5.91578 12.0057 5.65094C14.328 5.43907 16.5168 5.94226 18.332 6.97514C17.2643 8.48473 16.5168 10.1797 16.1432 12.0071C15.4225 15.3706 15.9831 18.6546 17.5846 20.7469C18.6256 22.0975 20.0403 22.8391 21.5351 22.8656C21.5351 22.8656 21.5351 22.8656 21.5618 22.8656C21.5618 22.8656 21.5618 22.8656 21.5885 22.8656C23.0833 22.8656 24.4981 22.0975 25.5391 20.7469C27.1674 18.6546 27.7012 15.3706 26.9805 12.0071C26.7136 10.7359 26.2598 9.51761 25.6459 8.3788C24.2578 9.14683 23.11 10.2327 22.2825 11.5569C22.4694 12.0071 22.6029 12.5103 22.7096 13.0135C23.2168 15.4236 22.7096 17.1715 22.1224 17.9131C22.0423 18.0455 21.8021 18.3103 21.5618 18.3103C21.3216 18.3103 21.1081 18.019 21.0013 17.9131C20.414 17.145 19.9069 15.3971 20.414 13.0135C21.4017 8.27286 25.9127 5.20071 31.0912 5.67742C33.9206 5.94226 36.5366 7.82263 37.7378 10.471C39.0991 13.3578 38.6453 16.8272 36.5099 20.2437Z" fill="#FF9C08"/>
<path d="M52.9768 26.1765V7.41504H59.9733C61.4861 7.41504 62.7377 7.6652 63.7281 8.1655C64.7187 8.66581 65.457 9.35372 65.9433 10.2293C66.4295 11.1048 66.6726 12.0875 66.6726 13.1775C66.6726 14.2138 66.4386 15.1698 65.9703 16.0453C65.502 16.903 64.7727 17.5998 63.7822 18.1358C62.7917 18.654 61.5221 18.9131 59.9733 18.9131H56.4346V26.1765H52.9768ZM56.4346 16.1257H59.7572C60.9638 16.1257 61.8282 15.8666 62.3505 15.3484C62.8908 14.8124 63.1609 14.0887 63.1609 13.1775C63.1609 12.2483 62.8908 11.5247 62.3505 11.0065C61.8282 10.4705 60.9638 10.2025 59.7572 10.2025H56.4346V16.1257Z" fill="#090909"/>
<path d="M69.3043 26.1764V6.87891H72.762V14.9195C73.2122 14.1869 73.8156 13.6151 74.5719 13.2042C75.3463 12.7753 76.2288 12.5609 77.2192 12.5609C78.8761 12.5609 80.1547 13.0791 81.0551 14.1154C81.9736 15.1518 82.4328 16.6706 82.4328 18.6718V26.1764H79.0022V18.9934C79.0022 17.8499 78.768 16.9743 78.2998 16.3668C77.8495 15.7593 77.1292 15.4555 76.1388 15.4555C75.1662 15.4555 74.3558 15.795 73.7075 16.474C73.0772 17.153 72.762 18.1 72.762 19.315V26.1764H69.3043Z" fill="#090909"/>
<path d="M87.6032 10.8188C86.9728 10.8188 86.4505 10.6312 86.0364 10.256C85.6402 9.88074 85.442 9.40724 85.442 8.83546C85.442 8.26369 85.6402 7.79912 86.0364 7.44176C86.4505 7.06653 86.9728 6.87891 87.6032 6.87891C88.2335 6.87891 88.7467 7.06653 89.1429 7.44176C89.5571 7.79912 89.7643 8.26369 89.7643 8.83546C89.7643 9.40724 89.5571 9.88074 89.1429 10.256C88.7467 10.6312 88.2335 10.8188 87.6032 10.8188ZM85.8743 26.1764V12.8825H89.332V26.1764H85.8743Z" fill="#090909"/>
<path d="M92.941 26.1764V6.87891H96.3988V26.1764H92.941Z" fill="#090909"/>
<path d="M104.551 26.4986C103.399 26.4986 102.453 26.3199 101.715 25.9625C100.976 25.5873 100.427 25.0959 100.067 24.4884C99.7067 23.8809 99.5267 23.2109 99.5267 22.4783C99.5267 21.2454 100.013 20.2448 100.985 19.4764C101.958 18.7081 103.417 18.324 105.361 18.324H108.765V18.0023C108.765 17.0911 108.504 16.421 107.982 15.9922C107.46 15.5634 106.812 15.3489 106.036 15.3489C105.335 15.3489 104.722 15.5187 104.2 15.8582C103.678 16.1798 103.354 16.6622 103.228 17.3055H99.8508C99.9408 16.3406 100.265 15.5008 100.823 14.7861C101.399 14.0714 102.138 13.5264 103.038 13.1512C103.939 12.7581 104.947 12.5615 106.064 12.5615C107.973 12.5615 109.476 13.035 110.575 13.982C111.674 14.929 112.223 16.2691 112.223 18.0023V26.177H109.279L108.954 24.0328C108.558 24.7475 108 25.3372 107.279 25.8017C106.577 26.2663 105.668 26.4986 104.551 26.4986ZM105.335 23.8184C106.325 23.8184 107.091 23.4968 107.631 22.8535C108.189 22.2103 108.54 21.4151 108.684 20.4681H105.74C104.821 20.4681 104.164 20.6379 103.768 20.9774C103.372 21.299 103.173 21.701 103.173 22.1835C103.173 22.7016 103.372 23.1037 103.768 23.3895C104.164 23.6754 104.686 23.8184 105.335 23.8184Z" fill="#090909"/>
<path d="M115.523 26.177V12.8831H118.575L118.845 15.1345C119.259 14.3483 119.854 13.7229 120.628 13.2584C121.421 12.7938 122.348 12.5615 123.41 12.5615C125.067 12.5615 126.354 13.0797 127.274 14.116C128.192 15.1524 128.651 16.6712 128.651 18.6724V26.177H125.193V18.994C125.193 17.8505 124.96 16.9749 124.491 16.3674C124.023 15.7599 123.294 15.4561 122.303 15.4561C121.33 15.4561 120.529 15.7956 119.899 16.4746C119.286 17.1536 118.981 18.1006 118.981 19.3156V26.177H115.523Z" fill="#090909"/>
<path d="M137.927 26.1769C136.523 26.1769 135.397 25.8374 134.551 25.1584C133.704 24.4794 133.281 23.2733 133.281 21.5401V15.7509H130.985V12.883H133.281L133.686 9.31836H136.739V12.883H140.359V15.7509H136.739V21.5669C136.739 22.2102 136.874 22.6569 137.144 22.907C137.432 23.1393 137.918 23.2554 138.602 23.2554H140.277V26.1769H137.927Z" fill="#090909"/>
<path d="M143.327 26.1764V6.87891H146.785V14.9195C147.235 14.1869 147.839 13.6151 148.594 13.2042C149.37 12.7753 150.251 12.5609 151.242 12.5609C152.899 12.5609 154.178 13.0791 155.078 14.1154C155.996 15.1518 156.456 16.6706 156.456 18.6718V26.1764H153.025V18.9934C153.025 17.8499 152.791 16.9743 152.323 16.3668C151.872 15.7593 151.153 15.4555 150.162 15.4555C149.189 15.4555 148.379 15.795 147.731 16.474C147.1 17.153 146.785 18.1 146.785 19.315V26.1764H143.327Z" fill="#090909"/>
<path d="M159.762 26.177V12.8831H162.842L163.166 15.3757C163.652 14.5181 164.309 13.8391 165.138 13.3388C165.985 12.8206 166.975 12.5615 168.109 12.5615V16.1798H167.137C166.381 16.1798 165.705 16.2959 165.111 16.5282C164.517 16.7605 164.048 17.1625 163.707 17.7343C163.382 18.3061 163.22 19.1012 163.22 20.1197V26.177H159.762Z" fill="#090909"/>
<path d="M176.664 26.4986C175.368 26.4986 174.197 26.2038 173.153 25.6141C172.127 25.0245 171.307 24.2115 170.694 23.1751C170.1 22.1209 169.803 20.9059 169.803 19.5301C169.803 18.1542 170.109 16.9481 170.722 15.9118C171.333 14.8576 172.153 14.0356 173.18 13.446C174.224 12.8563 175.395 12.5615 176.691 12.5615C177.97 12.5615 179.122 12.8563 180.149 13.446C181.194 14.0356 182.013 14.8576 182.608 15.9118C183.219 16.9481 183.526 18.1542 183.526 19.5301C183.526 20.9059 183.219 22.1209 182.608 23.1751C182.013 24.2115 181.194 25.0245 180.149 25.6141C179.104 26.2038 177.943 26.4986 176.664 26.4986ZM176.664 23.5236C177.565 23.5236 178.348 23.193 179.015 22.5319C179.681 21.8529 180.014 20.8523 180.014 19.5301C180.014 18.2078 179.681 17.2161 179.015 16.555C178.348 15.876 177.574 15.5366 176.691 15.5366C175.773 15.5366 174.981 15.876 174.315 16.555C173.666 17.2161 173.342 18.2078 173.342 19.5301C173.342 20.8523 173.666 21.8529 174.315 22.5319C174.981 23.193 175.764 23.5236 176.664 23.5236Z" fill="#090909"/>
<path d="M186.617 32.0734V12.8831H189.697L190.075 14.7861C190.507 14.1964 191.075 13.6783 191.777 13.2316C192.497 12.7849 193.425 12.5615 194.559 12.5615C195.82 12.5615 196.946 12.8653 197.936 13.4728C198.926 14.0803 199.709 14.9112 200.286 15.9654C200.862 17.0196 201.151 18.2168 201.151 19.5569C201.151 20.897 200.862 22.0941 200.286 23.1483C199.709 24.1847 198.926 25.0066 197.936 25.6141C196.946 26.2038 195.82 26.4986 194.559 26.4986C193.551 26.4986 192.668 26.311 191.912 25.9357C191.156 25.5605 190.544 25.0334 190.075 24.3544V32.0734H186.617ZM193.83 23.4968C194.928 23.4968 195.838 23.1305 196.559 22.3979C197.278 21.6653 197.639 20.7183 197.639 19.5569C197.639 18.3954 197.278 17.4395 196.559 16.689C195.838 15.9386 194.928 15.5634 193.83 15.5634C192.714 15.5634 191.795 15.9386 191.075 16.689C190.372 17.4216 190.021 18.3686 190.021 19.5301C190.021 20.6915 190.372 21.6474 191.075 22.3979C191.795 23.1305 192.714 23.4968 193.83 23.4968Z" fill="#090909"/>
<path d="M204.701 32.0731L207.807 25.2922H206.996L201.784 12.8828H205.538L209.293 22.2368L213.21 12.8828H216.884L208.374 32.0731H204.701Z" fill="#090909"/>
<path d="M224.743 26.1765L230.66 16.6885L224.663 7.41504H228.634L232.875 13.9547L236.764 7.41504H240.655L234.739 16.8493L240.79 26.1765H236.819L232.523 19.5564L228.634 26.1765H224.743Z" fill="#090909"/>
</g>
<defs>
<clipPath id="clip0_1_399">
<rect width="240.885" height="38" fill="white" transform="translate(0.18927 0.9375)"/>
</clipPath>
</defs>
</svg>
