<svg width="372" height="384" viewBox="0 0 372 384" fill="none" xmlns="http://www.w3.org/2000/svg">
<g opacity="0.1" filter="url(#filter0_d_1_311)">
<path fill-rule="evenodd" clip-rule="evenodd" d="M274.643 0.129312C379.401 -3.67527 463.628 77.0905 526.679 160.84C587.119 241.12 626.16 339.006 603.468 436.899C580.859 534.431 506.487 613.177 413.327 649.838C327.629 683.563 237.475 651.167 153.165 614.106C63.364 574.632 52.2235 510.687 28.5 415.5C4.47585 319.108 -16.2347 256.914 44.561 178.35C107.025 97.6297 172.647 3.83355 274.643 0.129312Z" fill="white"/>
<path d="M274.661 0.628983C379.145 -3.16566 463.233 77.3971 526.279 161.141C586.675 241.362 625.626 339.096 602.981 436.786C580.413 534.14 506.168 612.765 413.144 649.373C327.661 683.013 237.691 650.716 153.366 613.648C108.567 593.956 83.4188 568.179 66.4975 535.466C51.4021 506.282 42.8489 471.576 32.7675 430.668C31.5345 425.665 30.2786 420.569 28.9851 415.379C27.5796 409.74 26.1859 404.219 24.8194 398.806C14.4994 357.927 5.73521 323.21 5.22298 290.232C4.6436 252.931 14.6257 217.851 44.9564 178.656C48.7843 173.709 52.6233 168.715 56.4812 163.695C84.1145 127.743 112.716 90.5315 145.116 60.7266C182.03 26.7697 223.826 2.47519 274.661 0.628983Z" stroke="black"/>
<path d="M274.661 0.628983C379.145 -3.16566 463.233 77.3971 526.279 161.141C586.675 241.362 625.626 339.096 602.981 436.786C580.413 534.14 506.168 612.765 413.144 649.373C327.661 683.013 237.691 650.716 153.366 613.648C108.567 593.956 83.4188 568.179 66.4975 535.466C51.4021 506.282 42.8489 471.576 32.7675 430.668C31.5345 425.665 30.2786 420.569 28.9851 415.379C27.5796 409.74 26.1859 404.219 24.8194 398.806C14.4994 357.927 5.73521 323.21 5.22298 290.232C4.6436 252.931 14.6257 217.851 44.9564 178.656C48.7843 173.709 52.6233 168.715 56.4812 163.695C84.1145 127.743 112.716 90.5315 145.116 60.7266C182.03 26.7697 223.826 2.47519 274.661 0.628983Z" stroke="black" stroke-opacity="0.2"/>
<path d="M274.661 0.628983C379.145 -3.16566 463.233 77.3971 526.279 161.141C586.675 241.362 625.626 339.096 602.981 436.786C580.413 534.14 506.168 612.765 413.144 649.373C327.661 683.013 237.691 650.716 153.366 613.648C108.567 593.956 83.4188 568.179 66.4975 535.466C51.4021 506.282 42.8489 471.576 32.7675 430.668C31.5345 425.665 30.2786 420.569 28.9851 415.379C27.5796 409.74 26.1859 404.219 24.8194 398.806C14.4994 357.927 5.73521 323.21 5.22298 290.232C4.6436 252.931 14.6257 217.851 44.9564 178.656C48.7843 173.709 52.6233 168.715 56.4812 163.695C84.1145 127.743 112.716 90.5315 145.116 60.7266C182.03 26.7697 223.826 2.47519 274.661 0.628983Z" stroke="black" stroke-opacity="0.2"/>
</g>
<defs>
<filter id="filter0_d_1_311" x="0.699341" y="0" width="613.301" height="672" filterUnits="userSpaceOnUse" color-interpolation-filters="sRGB">
<feFlood flood-opacity="0" result="BackgroundImageFix"/>
<feColorMatrix in="SourceAlpha" type="matrix" values="0 0 0 0 0 0 0 0 0 0 0 0 0 0 0 0 0 0 127 0" result="hardAlpha"/>
<feOffset dy="4"/>
<feGaussianBlur stdDeviation="2"/>
<feComposite in2="hardAlpha" operator="out"/>
<feColorMatrix type="matrix" values="0 0 0 0 0 0 0 0 0 0 0 0 0 0 0 0 0 0 0.25 0"/>
<feBlend mode="normal" in2="BackgroundImageFix" result="effect1_dropShadow_1_311"/>
<feBlend mode="normal" in="SourceGraphic" in2="effect1_dropShadow_1_311" result="shape"/>
</filter>
</defs>
</svg>
