<svg width="200" height="32" viewBox="0 0 200 32" fill="none" xmlns="http://www.w3.org/2000/svg">
<g clip-path="url(#clip0_1_9)">
<path d="M34.4555 6.33285C32.8819 2.85368 29.6241 0.489631 25.9895 0.132793C23.0418 -0.134835 20.1386 0.623445 17.8115 2.29612C17.7894 2.31843 17.7672 2.34072 17.745 2.34072C17.7228 2.31843 17.7008 2.29612 17.6786 2.29612C15.3294 0.623445 12.4261 -0.134835 9.50067 0.155096C5.84384 0.489631 2.60813 2.85368 1.01244 6.33285C-0.694064 10.0573 -0.228654 14.3394 2.29786 18.3761C5.97681 24.2639 12.271 28.4568 16.9028 30.9324L17.6342 31.2892V31.3115H17.6564H17.6786L18.565 30.9547C23.197 28.4791 29.5133 24.2862 33.17 18.3984C35.6966 14.3394 36.162 10.0573 34.4555 6.33285ZM30.156 16.2574C27.1198 21.1416 21.8451 24.7769 17.7008 27.0963V27.0295C13.5563 24.7323 8.34819 21.097 5.33411 16.2574C3.53895 13.3804 3.18435 10.4588 4.29248 8.00552C5.31194 5.77529 7.48386 4.19182 9.81088 3.9688C11.739 3.79038 13.5563 4.21412 15.0634 5.08392C14.1769 6.35515 13.5563 7.7825 13.2461 9.32135C12.6477 12.1538 13.1131 14.9192 14.4428 16.6812C15.3072 17.8185 16.4818 18.443 17.7228 18.4653C17.7228 18.4653 17.7228 18.4653 17.745 18.4653C17.745 18.4653 17.745 18.4653 17.7672 18.4653C19.0083 18.4653 20.1829 17.8185 21.0473 16.6812C22.3992 14.9192 22.8424 12.1538 22.244 9.32135C22.0224 8.25086 21.6456 7.22494 21.1359 6.26595C19.9834 6.91271 19.0305 7.82711 18.3434 8.94223C18.4986 9.32135 18.6094 9.74509 18.698 10.1688C19.1191 12.1984 18.698 13.6703 18.2105 14.2948C18.1439 14.4063 17.9445 14.6293 17.745 14.6293C17.5456 14.6293 17.3683 14.384 17.2797 14.2948C16.7921 13.648 16.371 12.1761 16.7921 10.1688C17.6121 6.17673 21.3575 3.58966 25.657 3.9911C28.0062 4.21412 30.1782 5.79759 31.1755 8.02783C32.3058 10.4588 31.929 13.3804 30.156 16.2574Z" fill="#FF9C08"/>
<path d="M43.828 21.2542V5.4551H49.637C50.8931 5.4551 51.9322 5.66576 52.7546 6.08707C53.577 6.50838 54.19 7.08767 54.5937 7.82497C54.9974 8.56228 55.1992 9.38981 55.1992 10.3077C55.1992 11.1804 55.0049 11.9854 54.6161 12.7227C54.2274 13.445 53.6218 14.0317 52.7994 14.4831C51.9771 14.9195 50.9229 15.1377 49.637 15.1377H46.6989V21.2542H43.828ZM46.6989 12.7904H49.4576C50.4594 12.7904 51.1771 12.5722 51.6107 12.1358C52.0593 11.6845 52.2836 11.075 52.2836 10.3077C52.2836 9.52522 52.0593 8.91588 51.6107 8.4795C51.1771 8.0281 50.4594 7.8024 49.4576 7.8024H46.6989V12.7904Z" fill="#090909"/>
<path d="M57.3843 21.2542V5.0037H60.2552V11.7747C60.629 11.1578 61.1299 10.6763 61.7578 10.3303C62.4008 9.9691 63.1335 9.78855 63.9558 9.78855C65.3315 9.78855 66.3931 10.2249 67.1407 11.0976C67.9033 11.9704 68.2845 13.2493 68.2845 14.9346V21.2542H65.4362V15.2054C65.4362 14.2424 65.2418 13.5051 64.853 12.9935C64.4792 12.4819 63.8811 12.2261 63.0588 12.2261C62.2513 12.2261 61.5784 12.512 61.0402 13.0838C60.5168 13.6556 60.2552 14.4531 60.2552 15.4762V21.2542H57.3843Z" fill="#090909"/>
<path d="M72.5773 8.32151C72.054 8.32151 71.6203 8.16352 71.2765 7.84754C70.9475 7.53155 70.783 7.13282 70.783 6.65132C70.783 6.16983 70.9475 5.77861 71.2765 5.47768C71.6203 5.16169 72.054 5.0037 72.5773 5.0037C73.1007 5.0037 73.5268 5.16169 73.8557 5.47768C74.1997 5.77861 74.3716 6.16983 74.3716 6.65132C74.3716 7.13282 74.1997 7.53155 73.8557 7.84754C73.5268 8.16352 73.1007 8.32151 72.5773 8.32151ZM71.1419 21.2542V10.0594H74.0127V21.2542H71.1419Z" fill="#090909"/>
<path d="M77.0092 21.2542V5.0037H79.8801V21.2542H77.0092Z" fill="#090909"/>
<path d="M86.6485 21.5251C85.692 21.5251 84.9071 21.3746 84.2937 21.0736C83.6807 20.7576 83.2247 20.3438 82.9256 19.8323C82.6265 19.3207 82.4771 18.7565 82.4771 18.1395C82.4771 17.1013 82.8808 16.2587 83.6879 15.6116C84.4954 14.9646 85.7071 14.6412 87.3213 14.6412H90.1473V14.3703C90.1473 13.6029 89.9305 13.0387 89.4971 12.6776C89.0636 12.3165 88.5255 12.1358 87.882 12.1358C87.2996 12.1358 86.7908 12.2788 86.3573 12.5647C85.9238 12.8355 85.6544 13.2418 85.5498 13.7835H82.7462C82.8209 12.9709 83.0901 12.2637 83.5536 11.6619C84.0318 11.06 84.6452 10.6011 85.3925 10.2851C86.1406 9.95411 86.9774 9.78855 87.9046 9.78855C89.4895 9.78855 90.7381 10.1873 91.6502 10.9848C92.5623 11.7822 93.0184 12.9107 93.0184 14.3703V21.2542H90.5741L90.3046 19.4486C89.9757 20.0504 89.5121 20.547 88.9138 20.9382C88.3305 21.3294 87.5757 21.5251 86.6485 21.5251ZM87.2996 19.268C88.1213 19.268 88.7573 18.9972 89.2059 18.4555C89.6695 17.9139 89.9607 17.2442 90.0803 16.4467H87.636C86.8728 16.4467 86.3272 16.5897 85.9983 16.8756C85.6695 17.1464 85.5046 17.485 85.5046 17.8913C85.5046 18.3276 85.6695 18.6662 85.9983 18.9069C86.3272 19.1476 86.7607 19.268 87.2996 19.268Z" fill="#090909"/>
<path d="M95.7581 21.2542V10.0594H98.292L98.5163 11.9553C98.8602 11.2932 99.354 10.7666 99.9966 10.3754C100.655 9.98417 101.425 9.78855 102.307 9.78855C103.683 9.78855 104.751 10.2249 105.515 11.0976C106.277 11.9704 106.659 13.2493 106.659 14.9346V21.2542H103.787V15.2054C103.787 14.2424 103.593 13.5051 103.204 12.9935C102.816 12.4819 102.21 12.2261 101.387 12.2261C100.58 12.2261 99.9146 12.512 99.3916 13.0838C98.8828 13.6556 98.6293 14.4531 98.6293 15.4762V21.2542H95.7581Z" fill="#090909"/>
<path d="M114.36 21.2542C113.194 21.2542 112.259 20.9683 111.556 20.3965C110.854 19.8248 110.502 18.8091 110.502 17.3496V12.4744H108.596V10.0594H110.502L110.838 7.05758H113.373V10.0594H116.379V12.4744H113.373V17.3721C113.373 17.9139 113.485 18.29 113.71 18.5006C113.949 18.6963 114.352 18.794 114.921 18.794H116.311V21.2542H114.36Z" fill="#090909"/>
<path d="M118.844 21.2542V5.0037H121.715V11.7747C122.088 11.1578 122.589 10.6763 123.217 10.3303C123.86 9.9691 124.592 9.78855 125.415 9.78855C126.791 9.78855 127.853 10.2249 128.6 11.0976C129.362 11.9704 129.744 13.2493 129.744 14.9346V21.2542H126.895V15.2054C126.895 14.2424 126.701 13.5051 126.312 12.9935C125.938 12.4819 125.341 12.2261 124.518 12.2261C123.71 12.2261 123.038 12.512 122.5 13.0838C121.976 13.6556 121.715 14.4531 121.715 15.4762V21.2542H118.844Z" fill="#090909"/>
<path d="M132.489 21.2542V10.0594H135.046L135.315 12.1584C135.719 11.4362 136.264 10.8644 136.952 10.4431C137.655 10.0067 138.478 9.78855 139.419 9.78855V12.8355H138.612C137.984 12.8355 137.423 12.9333 136.93 13.1289C136.437 13.3245 136.048 13.6631 135.764 14.1446C135.495 14.6261 135.36 15.2957 135.36 16.1533V21.2542H132.489Z" fill="#090909"/>
<path d="M146.522 21.5251C145.446 21.5251 144.474 21.2768 143.607 20.7802C142.755 20.2837 142.074 19.5991 141.566 18.7263C141.072 17.8386 140.826 16.8154 140.826 15.6568C140.826 14.4982 141.079 13.4825 141.588 12.6099C142.096 11.7221 142.777 11.0299 143.629 10.5334C144.496 10.0368 145.469 9.78855 146.545 9.78855C147.607 9.78855 148.563 10.0368 149.416 10.5334C150.283 11.0299 150.963 11.7221 151.457 12.6099C151.965 13.4825 152.219 14.4982 152.219 15.6568C152.219 16.8154 151.965 17.8386 151.457 18.7263C150.963 19.5991 150.283 20.2837 149.416 20.7802C148.548 21.2768 147.584 21.5251 146.522 21.5251ZM146.522 19.0198C147.27 19.0198 147.92 18.7414 148.474 18.1847C149.027 17.6129 149.304 16.7703 149.304 15.6568C149.304 14.5433 149.027 13.7082 148.474 13.1515C147.92 12.5797 147.278 12.2939 146.545 12.2939C145.782 12.2939 145.125 12.5797 144.572 13.1515C144.033 13.7082 143.764 14.5433 143.764 15.6568C143.764 16.7703 144.033 17.6129 144.572 18.1847C145.125 18.7414 145.775 19.0198 146.522 19.0198Z" fill="#090909"/>
<path d="M154.786 26.2196V10.0594H157.343L157.657 11.6619C158.016 11.1653 158.487 10.729 159.07 10.3528C159.668 9.97667 160.438 9.78855 161.38 9.78855C162.427 9.78855 163.362 10.0444 164.183 10.556C165.006 11.0675 165.656 11.7672 166.135 12.655C166.613 13.5427 166.853 14.5509 166.853 15.6794C166.853 16.8079 166.613 17.816 166.135 18.7037C165.656 19.5765 165.006 20.2686 164.183 20.7802C163.362 21.2768 162.427 21.5251 161.38 21.5251C160.543 21.5251 159.81 21.3671 159.182 21.051C158.554 20.7351 158.046 20.2912 157.657 19.7194V26.2196H154.786ZM160.775 18.9972C161.686 18.9972 162.442 18.6888 163.04 18.0718C163.638 17.4549 163.937 16.6574 163.937 15.6794C163.937 14.7013 163.638 13.8963 163.04 13.2643C162.442 12.6324 161.686 12.3165 160.775 12.3165C159.848 12.3165 159.085 12.6324 158.487 13.2643C157.904 13.8813 157.612 14.6787 157.612 15.6568C157.612 16.6349 157.904 17.4398 158.487 18.0718C159.085 18.6888 159.848 18.9972 160.775 18.9972Z" fill="#090909"/>
<path d="M169.8 26.2196L172.379 20.5094H171.706L167.378 10.0594H170.495L173.613 17.9364L176.865 10.0594H179.915L172.85 26.2196H169.8Z" fill="#090909"/>
<path d="M186.441 21.2542L191.353 13.2643L186.374 5.4551H189.671L193.192 10.9622L196.422 5.4551H199.652L194.74 13.3997L199.764 21.2542H196.467L192.9 15.6794L189.671 21.2542H186.441Z" fill="#090909"/>
</g>
<defs>
<clipPath id="clip0_1_9">
<rect width="200" height="32" fill="white"/>
</clipPath>
</defs>
</svg>
